<svg xmlns="http://www.w3.org/2000/svg" id="Layer_1" width="216.25mm" height="39.19mm" viewBox="0 0 613 111.08"><path d="M545.42,45.62c-2.1-5.66-5.44-11.78-12.34-11.55-13.34,0-15.89,14.67-15.89,25.12s2.55,25.12,15.89,25.12c7.45-.34,11.68-6.33,14.34-12.34l7.01,3.12c-3.57,9.34-11.46,16.56-21.35,16.56-13.66,0-24.56-9.44-24.56-32.45s10.9-32.44,24.56-32.44c10.13,0,16.35,6.33,19.68,15.55l-7.34,3.33Z" fill="#fff" stroke-width="0"></path><polygon points="264.37 28.51 254.35 60.01 254.37 59.99 264.37 28.51" fill="#4b4b4d" stroke-width="0"></polygon><path d="M10.64,29.8c2.24-1.38,4.66-2.76,7.22-4.08,13.02-7.49,25.58-10.71,25.58-10.71,27.03-6.78,34.52,15.96,34.52,15.96,8.75,24.14,9.16,51.08,6.45,70.05,7.24,1.25,19.65.62,28.83-15.36,0,0,6.61-11.16,10.52-25.67,4.61-14.3,5.13-27.26,5.13-27.26,1.76-24-22.84-30.42-22.84-30.42C65.25-7.1,25.93,14.79,15.73,21.11l-1.09.74c-4.21,2.69-4.01,7.95-4.01,7.95" fill="#eb6b09" stroke-width="0"></path><polygon points="272.54 28.51 264.37 28.51 254.37 59.99 272.54 28.51" fill="#eb6b09" stroke-width="0"></polygon><path d="M294.38,89.86h-8.67V28.51h8.67v6.33c5.1-4.1,9.89-8.1,16.89-8.1,8.66,0,15.67,4.77,15.67,20.77v42.39h-8.67v-40.16c0-6.44,1.11-15.89-8.12-15.89-5.33,0-12.35,5.23-15.78,9.34v46.68Z" fill="#fff" stroke-width="0"></path><path d="M383.51,59.18c0-23.01,10.88-32.44,24.55-32.44s24.56,9.43,24.56,32.44-10.89,32.45-24.56,32.45-24.55-9.45-24.55-32.45M423.96,59.18c0-10.45-2.55-25.11-15.89-25.11s-15.89,14.67-15.89,25.11,2.56,25.12,15.89,25.12,15.89-14.67,15.89-25.12" fill="#fff" stroke-width="0"></path><path d="M482.52,28.51h8.66v61.35h-8.66v-6.34c-5.11,4.12-9.89,8.12-16.89,8.12-8.66,0-15.67-4.78-15.67-20.79V28.51h8.67v40.12c0,6.45,1.11,15.89,8.11,15.89,5.33,0,12.34-5.21,15.78-9.33V28.51Z" fill="#fff" stroke-width="0"></path><path d="M580.43,34.84c5.11-4.1,9.89-8.1,16.89-8.1,8.67,0,15.68,4.77,15.68,20.77v42.39h-8.67v-40.16c0-6.44,1.12-15.89-8.12-15.89-5.32,0-12.34,5.23-15.77,9.34v46.68h-8.66V3.39h8.66v31.44Z" fill="#fff" stroke-width="0"></path><path d="M154.81,69.57l8.85-2c3.55,10.69,11.27,16.02,23.14,16.02,6.2,0,10.88-1.31,14-3.94,3.15-2.63,4.71-6.16,4.71-10.58,0-3.33-1.18-6.03-3.59-8.06-2.38-2.03-5.15-3.43-8.28-4.21l-15.69-3.86c-4.07-1.03-7.4-2.29-9.99-3.77-2.58-1.48-4.78-3.75-6.58-6.82-1.8-3.05-2.7-6.57-2.7-10.51,0-6.56,2.46-11.78,7.4-15.67,4.94-3.89,11.28-5.83,19.02-5.83,14.25,0,23.62,6.42,28.1,19.29l-8.94,2.65c-1.03-4.59-3.46-8.05-7.29-10.41-3.82-2.34-7.89-3.52-12.21-3.52s-8.09,1.13-11.44,3.4c-3.34,2.27-5.02,5.48-5.02,9.63,0,5.81,4.24,9.73,12.74,11.77l14.66,3.44c13.41,3.23,20.12,10.44,20.12,21.67,0,6.79-2.52,12.42-7.56,16.93-5.03,4.51-12.14,6.75-21.29,6.75-16.24,0-26.96-7.46-32.16-22.38" fill="#fff" stroke-width="0"></path><polygon points="362.54 90.36 352.74 90.36 352.74 20.56 330.3 20.56 330.3 11.95 385.08 11.95 385.08 20.56 362.54 20.56 362.54 90.36" fill="#fff" stroke-width="0"></polygon><path d="M232.48,28.51h-8.78l21.11,60.23c-2.23,7.33-5.11,14.67-13.89,14.67-1.78,0-3.45-.44-5-.89l-1.34,7.34c2.33.78,4.23,1.22,6.67,1.22,12.22,0,17.67-8.22,21-18.78l15.16-47.53-18.26,31.64-16.67-47.9Z" fill="#fff" stroke-width="0"></path><path d="M76.57,94.5s-40.29.16-76.57-44.99c1.66-1.68,3.98-3.97,5.58-5.38,9.45-9.18,19.45-14.62,19.45-14.62,22.84-12.49,32.81,6.14,32.81,6.14,11.05,19.06,16.72,42.02,18.72,58.86" fill="#fff" stroke-width="0"></path></svg>